<?xml version="1.0" encoding="UTF-8" standalone="no"?>
<!-- Created with Inkscape (http://www.inkscape.org/) -->

<svg
   xmlns:dc="http://purl.org/dc/elements/1.1/"
   xmlns:cc="http://creativecommons.org/ns#"
   xmlns:rdf="http://www.w3.org/1999/02/22-rdf-syntax-ns#"
   xmlns:svg="http://www.w3.org/2000/svg"
   xmlns="http://www.w3.org/2000/svg"
   xmlns:sodipodi="http://sodipodi.sourceforge.net/DTD/sodipodi-0.dtd"
   xmlns:inkscape="http://www.inkscape.org/namespaces/inkscape"
   width="32"
   height="32"
   id="svg2"
   version="1.1"
   inkscape:version="0.48.5 r10040"
   sodipodi:docname="verso.svg"
   inkscape:export-filename="/home/martin/code/verso/verso.png"
   inkscape:export-xdpi="720"
   inkscape:export-ydpi="720">
  <defs
     id="defs4" />
  <sodipodi:namedview
     id="base"
     pagecolor="#ffffff"
     bordercolor="#666666"
     borderopacity="1.0"
     inkscape:pageopacity="0.0"
     inkscape:pageshadow="2"
     inkscape:zoom="15.75"
     inkscape:cx="16"
     inkscape:cy="16"
     inkscape:document-units="px"
     inkscape:current-layer="layer2"
     showgrid="false"
     inkscape:window-width="1366"
     inkscape:window-height="702"
     inkscape:window-x="0"
     inkscape:window-y="27"
     inkscape:window-maximized="1" />
  <metadata
     id="metadata7">
    <rdf:RDF>
      <cc:Work
         rdf:about="">
        <dc:format>image/svg+xml</dc:format>
        <dc:type
           rdf:resource="http://purl.org/dc/dcmitype/StillImage" />
        <dc:title />
      </cc:Work>
    </rdf:RDF>
  </metadata>
  <g
     inkscape:label="yellow"
     inkscape:groupmode="layer"
     id="layer1"
     transform="translate(0,-1020.3622)"
     style="display:inline">
    <path
       id="path3785"
       d="m 10.873511,1022.9932 -5.6249991,20.5 c 6.6666661,-1.0794 10.7375981,-1.0159 17.5312491,0 -1.269841,-6.8571 -1.587302,-13.5794 0,-20.5 -3.873016,-1.1429 -10.670411,-1.5206 -11.90625,0 z"
       style="fill:#edd400;fill-opacity:1;stroke:#eeeeec;stroke-width:1;stroke-miterlimit:4;stroke-opacity:1;stroke-dasharray:none"
       inkscape:connector-curvature="0"
       sodipodi:nodetypes="ccccc" />
  </g>
  <g
     inkscape:groupmode="layer"
     id="layer2"
     inkscape:label="grey"
     style="display:inline">
    <path
       style="fill:#babdb6;fill-opacity:1;stroke:#babdb6;stroke-width:1;stroke-miterlimit:4;stroke-opacity:1;stroke-dasharray:none;display:inline"
       d="m 26.876043,12.548076 c -5.269841,4.8889 -8.646651,11.3284 -10.487921,17.6141 -4.126984,-0.5714 -10.6276596,-5.032651 -11.3260723,-6.556451 0,-4.3175 2.8748493,-18.0281917 5.5893853,-20.7430488 3.856597,3.9648 9.557941,7.5901998 16.224608,9.6853998 z"
       id="rect3782"
       inkscape:connector-curvature="0"
       sodipodi:nodetypes="ccccc" />
  </g>
  <g
     inkscape:groupmode="layer"
     id="layer3"
     inkscape:label="writing"
     style="display:inline">
    <g
       id="g3922"
       transform="matrix(0.944014,0.3299054,-0.3299054,0.944014,5.9260496,-4.216041)">
      <g
         transform="matrix(0.98607158,0.16632147,-0.16632147,0.98607158,26.683944,3.6797479)"
         id="g3839">
        <path
           style="fill:#2e3436;fill-opacity:1;stroke:none"
           id="path3801"
           d="m -17.150813,7.3323349 c 0.08849,0.1793802 0.235531,0.3132065 0.371015,0.4555074 0.09641,0.1179934 0.196992,0.1630422 0.332024,0.2191229 0.271336,0.071801 0.55534,0.063296 0.83256,0.041905 0.249212,-0.039307 0.492676,-0.1035679 0.745619,-0.070596 0.127779,-0.017127 0.08215,-0.1051134 0.22687,0.00191 0.07505,0.099635 0.101655,0.2194768 0.205497,0.2955569 0.247081,0.017535 0.49122,-0.06503 0.723496,-0.1392488 0.187057,-0.058517 0.367512,-0.1352545 0.549641,-0.2070766 0.0066,-0.00259 0.175183,-0.072639 0.207638,-0.073868 0.01892,-7.166e-4 0.03555,0.013055 0.05333,0.019582 0.01231,0.025072 0.03174,0.047772 0.03694,0.075216 0.01425,0.075225 -0.07018,0.2161564 -0.101418,0.2839177 0,0 -0.85249,0.3873626 -0.85249,0.3873626 l 0,0 c 0.01506,-0.030131 0.09134,-0.2216649 0.119689,-0.2233864 0.01099,-6.677e-4 0.01679,0.01426 0.02519,0.02139 -0.248804,0.1025991 -0.508042,0.1834089 -0.76083,0.2754849 -0.204084,0.061034 -0.495644,0.1699236 -0.713086,0.115594 -0.03,-0.0075 -0.05698,-0.024065 -0.08547,-0.036097 -0.05316,-0.048363 -0.09294,-0.094428 -0.127457,-0.158047 -6.07e-4,-0.00112 -0.04281,-0.088777 -0.04899,-0.097644 -0.0058,-0.00825 -0.01454,-0.013896 -0.02181,-0.020845 -0.05572,-0.00885 -0.13371,0.062614 -0.202994,0.024434 -0.241214,-0.020069 -0.475095,0.045528 -0.714188,0.067893 -0.292207,0.017214 -0.596356,0.029147 -0.878547,-0.061931 -0.139093,-0.058085 -0.252513,-0.1375865 -0.349281,-0.2548827 -0.137478,-0.1477845 -0.279106,-0.2917082 -0.385163,-0.4653189 0,0 0.81222,-0.4759363 0.81222,-0.4759363 z"
           inkscape:connector-curvature="0" />
        <path
           style="fill:#2e3436;fill-opacity:1;stroke:none"
           id="path3803"
           d="m -10.679521,7.4410853 c 0.17635,0.011772 0.345662,-0.027222 0.514361,-0.072612 0.1665101,-0.042716 0.225978,-0.04694 0.3630019,0.052475 0.082297,0.046689 0.176195,0.062618 0.2652115,0.0937 0.1568386,0.1013221 0.1735605,0.3321582 0.1991144,0.5008147 0.00377,0.032027 0.018667,0.1649103 0.025959,0.206639 0.00395,0.022629 0.025171,0.086412 0.026787,0.063497 0.0014,-0.019866 0.00806,-0.067647 -0.00984,-0.058929 -0.2683275,0.1306605 -0.518834,0.2951246 -0.7782508,0.4426869 0.1069684,-0.1333644 0.1853865,-0.2857904 0.2577362,-0.4398193 0.1910785,-0.3496715 0.4542435,-0.3629509 0.9241756,-0.6062265 0.016194,-0.00838 0.1135535,0.058157 0.131822,0.067283 0.06613,0.020607 0.129985,0.046253 0.1954904,0.068934 0,0 -0.779197,0.5267263 -0.779197,0.5267263 l 0,0 c -0.067815,-0.024319 -0.1370669,-0.045001 -0.2030209,-0.074173 -0.013223,-0.00549 -0.047276,-0.023522 -0.065861,-0.019224 -0.00802,0.00185 -0.026966,0.018811 -0.019875,0.014637 0.255008,-0.1500923 0.5091574,-0.3016386 0.7637362,-0.4524579 -0.017038,0.010135 -0.036616,0.016884 -0.051116,0.030405 -0.01787,0.016663 -0.029466,0.038982 -0.0442,0.058473 -0.08053,0.1527851 -0.1488478,0.3109108 -0.2408172,0.4576944 -0.2885344,0.1760241 -0.8028673,0.7377853 -0.9221823,0.4215565 -0.03274,-0.086783 -0.0079,-0.1856382 -0.03192,-0.2740134 -0.01934,-0.129071 -0.02467,-0.3411896 -0.159018,-0.4063439 -0.09536,-0.032877 -0.197003,-0.050692 -0.279435,-0.1131765 -0.09666,-0.058284 -0.207924,-0.018422 -0.310653,0.00663 -0.178134,0.041602 -0.360948,0.067699 -0.544044,0.046497 0,0 0.772043,-0.5416708 0.772043,-0.5416708 z"
           inkscape:connector-curvature="0" />
        <path
           style="fill:#2e3436;fill-opacity:1;stroke:none"
           id="path3805"
           d="m -6.0490747,7.4605979 c 0.2078987,-0.00658 0.3363906,0.017817 0.5053006,0.1448771 0.1651848,0.1421598 0.2512623,0.3282922 0.334597,0.5231942 0.061284,0.1001188 0.067569,0.065486 0.1392221,0.012163 0.033092,-0.024627 0.091256,-0.052281 0.1271763,-0.070621 0.1343183,-0.073117 0.2406219,-0.040888 0.3789354,-0.010914 0.076177,-0.00174 0.1364686,0.063783 0.2130416,0.053779 0.03362,-0.00439 0.064974,-0.019429 0.09765,-0.028478 0.1029851,-0.064768 0.1773444,-0.1131583 0.2792808,-0.021574 0.00165,-0.034754 0.044208,0.1075405 0.054446,0.071048 0.00296,-0.010549 0.013005,-0.03773 0.00327,-0.032706 -0.7557328,0.389991 -0.9941162,0.6690005 -0.7556291,0.3989472 0.080475,-0.1543354 0.1030024,-0.3297257 0.1720564,-0.4890756 0.1974473,-0.3208264 0.6096583,-0.4058802 0.9410049,-0.5729631 0.020684,-0.01043 0.1811243,0.0063 0.2109482,0.00773 0.093608,0.011124 0.1933454,-0.01081 0.2793726,0.036077 0.034276,0.018681 0.063309,0.0457 0.095546,0.067714 0.1086715,0.08091 0.113328,0.2197151 0.146048,0.3397499 0.1345536,0.2935008 0.8704146,-0.3853286 -0.805624,0.4370146 -0.00965,0.00473 0.021221,-0.00728 0.028388,-0.015289 0.01845,-0.020616 0.030292,-0.068452 0.037836,-0.092147 0.023834,-0.073221 0.041419,-0.1835373 0.1160829,-0.2267184 0.8588334,-0.4966974 0.552185,-0.5904575 0.9232907,-0.4544731 0.094293,0.04975 0.1448088,0.1347234 0.1984048,0.2224049 0,0 -0.8095848,0.4712996 -0.8095848,0.4712996 l 0,0 c -0.04085,-0.063532 -0.076461,-0.1342825 -0.1574115,-0.1493211 -0.3235131,0.092268 -0.013339,0.0073 0.7222861,-0.4327703 0.015313,-0.00916 -0.03459,0.0099 -0.050248,0.018462 -0.058499,0.031971 -0.078976,0.082451 -0.09446,0.1443804 -0.00185,0.010044 -0.032918,0.1656627 -0.033185,0.1658113 C -3.2389975,8.2493898 -3.5110816,8.7090648 -3.6530735,8.338431 -3.6795845,8.239812 -3.6746165,8.119658 -3.7681934,8.057083 -3.8696263,7.985801 -3.9886022,7.999965 -4.1081576,7.995351 c -0.042196,-2.155e-4 -0.095589,-0.00205 -0.1377764,0.00378 -0.019972,0.00276 -0.076201,0.023822 -0.059003,0.013301 0.2500331,-0.1529597 0.5093316,-0.2903676 0.7600632,-0.4421796 0.015935,-0.00965 -0.037729,0.00545 -0.053935,0.014635 -0.018036,0.010225 -0.030605,0.027978 -0.045908,0.041967 -0.095853,0.1485616 -0.1131506,0.3265885 -0.1668712,0.4922919 -0.1411865,0.3492057 -0.7372607,0.8186705 -0.9583288,0.4543055 -0.08267,-0.00229 -0.1499349,0.079126 -0.2340095,0.078649 -0.1177533,0.013644 -0.2176364,-0.032389 -0.3315154,-0.054957 -0.1242777,-0.022292 -0.2282873,-0.0085 -0.3386559,0.059091 -0.1635816,0.083606 -0.2505946,0.1164015 -0.3510592,-0.070643 -0.072441,-0.1810026 -0.1451873,-0.3544127 -0.3049606,-0.4787627 -0.1553889,-0.097775 -0.3026396,-0.1024137 -0.4820497,-0.09181 0,0 0.7630946,-0.5544206 0.7630946,-0.5544206 z"
           inkscape:connector-curvature="0" />
      </g>
      <g
         transform="matrix(0.98607158,0.16632147,-0.16632147,0.98607158,27.167542,2.7478753)"
         id="g3844">
        <path
           style="fill:#2e3436;fill-opacity:1;stroke:none"
           id="path3807"
           d="m -17.026277,11.272374 c 0.201765,-0.04689 0.328938,-0.200009 0.545974,-0.178662 0.112502,0.03389 0.157518,0.147442 0.242388,0.216379 0.06876,0.05119 0.158191,0.02777 0.234006,0.04856 0.02105,0.0058 0.03947,0.01866 0.05921,0.02798 0.13658,0.0999 0.128644,0.284925 0.184313,0.431072 0.05125,0.08907 0.03646,0.02164 0.07931,-0.0082 0.02392,-0.01668 0.05148,-0.02762 0.07574,-0.0438 -0.252097,0.144815 -0.503619,0.290636 -0.756291,0.434444 -0.03245,0.01847 0.0619,-0.04192 0.09449,-0.06015 0.280938,-0.157172 0.554622,-0.328356 0.843992,-0.469402 0.01851,-0.009 0.05242,0.05486 0.07617,0.09405 0.02199,0.04881 0.07357,0.196718 0.131671,0.212928 0.0113,0.0032 0.02329,-0.0029 0.03493,-0.0044 0.265948,-0.178505 0.668616,-0.357199 -0.603816,0.331711 -0.03073,0.01663 0.05582,-0.04204 0.08404,-0.06265 0.02966,-0.02166 0.05801,-0.04539 0.08959,-0.06413 0.293804,-0.174366 0.59079,-0.343313 0.886185,-0.51497 0.06916,-0.02956 0.146383,-0.05025 0.222125,-0.03264 0.01949,0.0045 0.03592,0.01883 0.05554,0.02276 0.04252,-0.0068 0.02174,-0.0083 0.06236,0.0038 0.0088,0.0022 0.01768,0.0044 0.02652,0.0066 0,0 -0.77798,0.540095 -0.77798,0.540095 l 0,0 c -0.0084,-0.0016 -0.01675,-0.0031 -0.02512,-0.0047 -0.05912,-0.003 0.02738,0.0029 -0.06247,-0.01172 -0.08023,-0.01308 -0.1564,0.02597 -0.224904,0.0617 0.234689,-0.136844 0.46856,-0.275101 0.704068,-0.410533 0.03119,-0.01794 -0.06183,0.03698 -0.09103,0.058 -0.02816,0.02027 -0.05114,0.0476 -0.08077,0.06566 -0.289774,0.176676 -0.581441,0.350372 -0.876535,0.518012 -0.02708,0.01539 -0.05763,0.02555 -0.08844,0.03018 -0.02558,0.0038 -0.05162,-0.0035 -0.07744,-0.0052 -0.10373,-0.05627 -0.163096,-0.15415 -0.20371,-0.263826 -0.0033,-0.0037 -0.0055,-0.01331 -0.0098,-0.011 -0.005,0.0027 -0.0061,0.01962 -0.0012,0.01687 0.263232,-0.14669 0.520581,-0.303727 0.782702,-0.452394 0.01522,-0.0086 -0.027,0.02236 -0.04158,0.03205 -0.01716,0.01141 -0.03564,0.02071 -0.05343,0.0311 -0.284685,0.166236 -0.56934,0.332523 -0.85401,0.498784 -0.118691,0.05123 -0.179481,0.04816 -0.240707,-0.08324 -0.03164,-0.0844 -0.02724,-0.06359 -0.04695,-0.154508 -0.01636,-0.07547 -0.01743,-0.169772 -0.09757,-0.205525 -0.110035,-0.02302 -0.225268,-0.02852 -0.314555,-0.106402 -0.06138,-0.05962 -0.105542,-0.155564 -0.199889,-0.159254 -0.188365,0.03382 -0.34463,0.160403 -0.533711,0.195519 0,0 0.746565,-0.570867 0.746565,-0.570867 z"
           inkscape:connector-curvature="0" />
        <path
           style="fill:#2e3436;fill-opacity:1;stroke:none"
           id="path3809"
           d="m -12.96971,11.427294 c 0.169445,0.0034 0.338958,0.0029 0.508432,0.0026 0.149092,-0.0049 0.29444,-0.0047 0.440866,0.02288 0.139709,0.01373 0.25485,0.09389 0.359222,0.182021 0.01279,0.0085 0.02393,0.02023 0.03836,0.02541 0.03611,0.01296 0.05011,-0.02563 0.04867,-0.02486 -1.587813,0.850801 -0.927036,0.583389 -0.705833,0.371146 0.258683,-0.30993 0.63903,-0.542979 1.034613,-0.626018 0,0 -0.744016,0.576013 -0.744016,0.576013 l 0,0 c -0.320152,0.139212 -0.03575,0.01791 0.705154,-0.41882 0.01926,-0.01135 -0.138611,0.0726 -0.130257,0.09905 -0.207102,0.332351 -0.70961,0.777386 -1.043116,0.497579 -0.0999,-0.07727 -0.202835,-0.133226 -0.331684,-0.141799 -0.141929,-0.01982 -0.285095,-0.01092 -0.428055,-0.01328 -0.171816,-4.01e-4 -0.343668,-7.79e-4 -0.515456,0.0026 0,0 0.763094,-0.554421 0.763094,-0.554421 z"
           inkscape:connector-curvature="0" />
        <path
           style="fill:#2e3436;fill-opacity:1;stroke:none"
           id="path3811"
           d="m -9.536664,11.182499 c 0.1350896,0.06122 0.2848357,0.07052 0.4247263,0.11361 0.1235337,0.03134 0.2358658,0.0911 0.3648552,0.09224 0.2588341,-0.0063 0.5046821,-0.107049 0.744882,-0.194482 0.2340653,-0.07784 0.464574,-0.244629 0.7185541,-0.236498 0.2056971,0.07345 0.2654812,0.288101 0.3384939,0.473129 0.040032,0.15836 0.111876,0.230935 0.2222535,0.337975 0.1040018,0.0696 0.1786291,0.163274 0.2300054,0.276143 0.00185,0.0036 0.028023,0.06828 0.048579,0.06865 0.011262,1.99e-4 0.017463,-0.01423 0.026375,-0.02112 0.013539,-0.01046 0.055986,-0.03914 0.04097,-0.03093 -0.7306847,0.399295 -0.9831316,0.593207 -0.6836585,0.368663 0.123771,-0.110808 0.233806,-0.236086 0.3594724,-0.344792 0.020475,-0.01408 0.039815,-0.02997 0.061425,-0.04224 0.2919288,-0.165684 0.5844141,-0.330432 0.8789341,-0.491465 0.024992,-0.01366 0.053493,-0.01986 0.079091,-0.03235 0.024213,-0.01182 0.093416,-0.05374 0.07,-0.04041 -0.2472339,0.14071 -0.4943046,0.281707 -0.7414569,0.422561 0,0 0.8722447,-0.344131 0.8722447,-0.344131 l 0,0 c -0.287018,0.16909 -0.5727432,0.340394 -0.8610541,0.507269 -0.023471,0.01358 -0.049149,0.02294 -0.07395,0.03392 -0.4676003,0.206865 1.0136152,-0.584455 0.5873019,-0.359763 -0.140948,0.08933 -0.2467502,0.223419 -0.3651248,0.339373 -0.2889409,0.289742 -0.112183,0.122999 -0.9287466,0.557806 -0.084751,0.04513 -0.1647048,-0.0679 -0.1900089,-0.12941 -0.04468,-0.104393 -0.1223279,-0.176962 -0.2117835,-0.245224 -0.1106226,-0.108189 -0.1987994,-0.221358 -0.2349089,-0.37659 -0.056356,-0.14403 -0.097718,-0.354408 -0.2792329,-0.371918 -0.2406072,0.04102 -0.457179,0.167585 -0.686504,0.245305 -0.2528849,0.08858 -0.5135653,0.192869 -0.7864259,0.174657 -0.1285904,-0.02231 -0.2490814,-0.07115 -0.3748557,-0.105242 -0.1408448,-0.03439 -0.2821998,-0.06679 -0.4224968,-0.103058 0,0 0.7720432,-0.541671 0.7720432,-0.541671 z"
           inkscape:connector-curvature="0" />
        <path
           style="fill:#2e3436;fill-opacity:1;stroke:none"
           id="path3813"
           d="m -4.0855011,11.218703 c 0.1537652,-0.03027 0.3053393,-0.02523 0.4598716,-0.0089 -0.027421,0.04285 0.1429143,-0.0694 0.1082327,-0.05 -0.2522261,0.141121 -0.5021749,0.28629 -0.7545455,0.427153 -0.01842,0.01028 0.034254,-0.02476 0.052519,-0.03531 0.2852726,-0.164853 0.5670604,-0.336127 0.8579594,-0.490836 0.01861,-0.0099 0.042152,6.13e-4 0.063227,9.2e-4 0.2174153,0.155514 0.2715712,0.438178 0.343577,0.680022 0.012275,0.04349 0.024161,0.0871 0.036825,0.13048 0.00784,0.02687 0.0379,0.129722 0.053762,0.164702 0.00303,0.0067 0.020369,0.01387 0.013804,0.01716 -0.8483043,0.424844 -0.8752398,0.683686 -0.8095189,0.317846 0.00814,-0.112335 0.00522,-0.05558 0.00861,-0.170276 0,0 0.8337242,-0.42269 0.8337242,-0.42269 l 0,0 c -0.0013,0.11786 -2.978e-4,0.05923 -0.00297,0.175877 -0.013017,0.402338 0.018947,0.114601 -0.8503063,0.570417 -0.012042,0.0063 -0.011929,-0.02454 -0.016086,-0.03749 -0.00801,-0.02495 -0.041407,-0.163299 -0.044072,-0.173795 -0.011011,-0.04335 -0.022498,-0.08659 -0.033747,-0.12988 -0.043225,-0.148505 -0.103944,-0.462783 -0.245864,-0.551969 -0.011311,-0.0071 -0.026548,-0.003 -0.039822,-0.0045 -0.3114499,0.130086 -0.114178,0.05012 0.7051038,-0.420471 0.018437,-0.01059 -0.033108,0.02695 -0.051448,0.0377 -0.319712,0.187514 -0.6111591,0.512969 -0.9935606,0.509647 -0.1512212,-0.01225 -0.3003969,-0.0014 -0.4490065,0.03109 0,0 0.7537339,-0.566871 0.7537339,-0.566871 z"
           inkscape:connector-curvature="0" />
      </g>
      <g
         transform="matrix(0.98607158,0.16632147,-0.16632147,0.98607158,28.260635,3.0214199)"
         id="g3850">
        <path
           style="fill:#2e3436;fill-opacity:1;stroke:none"
           id="path3815"
           d="m -17.60463,14.334305 c 0.166951,-0.01057 0.325427,-0.06415 0.488737,-0.09611 0.117337,-0.0556 0.228603,-0.07831 0.353516,-0.03757 0.05258,0.01605 0.100779,0.03317 0.148877,0.05962 0,0 -0.786308,0.519763 -0.786308,0.519763 l 0,0 c -0.04444,-0.01695 -0.08935,-0.03233 -0.13613,-0.0417 -0.115391,-0.0077 -0.216074,0.03985 -0.326661,0.06606 -0.166913,0.03656 -0.333101,0.08047 -0.505126,0.08435 0,0 0.763095,-0.554421 0.763095,-0.554421 z"
           inkscape:connector-curvature="0" />
        <path
           style="fill:#2e3436;fill-opacity:1;stroke:none"
           id="path3817"
           d="m -15.768113,14.763469 c 0.315215,-0.339566 0.739609,-0.602115 1.189869,-0.715964 0.130171,-0.02788 0.259202,-0.03627 0.381079,0.02255 0.130049,0.07101 0.282227,0.06711 0.426312,0.07494 0.208858,0.0053 0.419788,-0.06413 0.625376,-0.01366 0.07138,-0.01617 0.102103,0.146722 0.16228,0.137541 0.0019,-2.85e-4 0.04699,-0.05321 0.05104,-0.0579 -0.253097,0.143719 -0.5051,0.289378 -0.759289,0.431156 -0.0189,0.01054 0.03564,-0.02455 0.05314,-0.03729 0.04903,-0.0357 0.09335,-0.08617 0.145749,-0.116435 0.282733,-0.163333 0.568313,-0.321688 0.85247,-0.482532 0.148139,-0.01574 0.20169,0.03269 0.25606,0.166971 0.04988,0.0982 -0.0018,0.251155 0.07257,0.330187 0.103267,-0.01009 0.195686,-0.02068 0.29568,0.01363 0.01822,0.0066 0.03644,0.01319 0.05465,0.01978 0,0 -0.778467,0.529112 -0.778467,0.529112 l 0,0 c -0.01693,-0.0048 -0.03385,-0.0096 -0.05078,-0.01441 -0.114486,-0.01507 -0.237302,0.02162 -0.330926,-0.06535 -0.08439,-0.118889 -0.05261,-0.22016 -0.0851,-0.354766 -0.03504,-0.09605 -0.08853,-0.07584 -0.173504,-0.04102 0.254283,-0.148201 0.508674,-0.296218 0.76285,-0.444604 0.01716,-0.01002 -0.03533,0.01839 -0.0518,0.0295 -0.05403,0.03646 -0.09104,0.08901 -0.147509,0.122369 -0.284169,0.167889 -0.570287,0.332457 -0.855431,0.498686 -0.141774,0.0067 -0.130895,-0.0871 -0.242989,-0.126695 -0.203074,-0.02182 -0.406864,0.03162 -0.610733,0.01746 -0.156304,-0.0094 -0.312139,-0.0167 -0.453708,-0.09068 -0.114171,-0.02795 -0.229397,-0.009 -0.340571,0.0255 -0.296338,0.112999 -0.737699,0.406744 0.597401,-0.368341 0.01122,-0.0065 -0.054,0.02527 -0.130035,0.09198 -0.01715,0.01505 -0.03258,0.03196 -0.04886,0.04794 0,0 -0.866825,0.37034 -0.866825,0.37034 z"
           inkscape:connector-curvature="0" />
        <path
           style="fill:#2e3436;fill-opacity:1;stroke:none"
           id="path3819"
           d="m -11.263554,14.949632 c 0.07539,-0.133288 0.159426,-0.261557 0.252489,-0.383135 0.223355,-0.339734 0.61264,-0.682756 1.0401122,-0.657333 0.1097988,0.01347 0.1936146,0.0923 0.2832537,0.150039 0.1197055,0.08583 0.1728421,0.227104 0.2776502,0.32633 0.1097714,0.07096 0.2368789,0.09781 0.3658988,0.0971 0.1262977,-0.01073 0.2479856,-0.01297 0.3498339,0.06992 0.077815,0.06351 0.1292978,0.104617 0.2007558,0.01252 -0.7856887,0.453825 -0.9741867,0.664355 -0.7408592,0.41209 0,0 0.8690855,-0.366086 0.8690855,-0.366086 l 0,0 c -0.2413568,0.283626 -0.017024,0.02746 -0.8628298,0.546857 -0.1032881,0.01533 -0.1830773,-0.03424 -0.2614308,-0.09788 -0.097625,-0.04864 -0.2118435,-0.02125 -0.3166311,-0.0298 -0.1448841,-0.01532 -0.2919282,-0.05918 -0.4050602,-0.154337 -0.09387,-0.100276 -0.150898,-0.2313 -0.267664,-0.308923 -0.0755,-0.04976 -0.151384,-0.112778 -0.247144,-0.09211 -0.305642,0.137518 0.0045,-5.57e-4 0.7261784,-0.428217 0.014012,-0.0083 -0.030804,0.01115 -0.044852,0.01939 -0.0501,0.02939 -0.07882,0.07796 -0.103742,0.128578 -0.08812,0.120588 -0.183988,0.235137 -0.256653,0.366631 0,0 -0.858391,0.388363 -0.858391,0.388363 z"
           inkscape:connector-curvature="0" />
        <path
           style="fill:#2e3436;fill-opacity:1;stroke:none"
           id="path3821"
           d="m -6.8156598,14.563231 c 0.1904168,-0.02088 0.381596,-0.03279 0.5729106,-0.04144 0.1527443,-0.01991 0.2907703,0.03379 0.4324411,0.07909 0.1610236,0.05635 0.298877,-0.02085 0.4418718,-0.09187 0.4538982,-0.254295 -0.3372444,0.198014 -0.5090191,0.29137 -0.049171,0.02672 0.094017,-0.06076 0.1401535,-0.09244 0.1132102,-0.07773 0.2176006,-0.163456 0.3221649,-0.252131 0.3126564,-0.251313 0.1801836,-0.150542 0.9233395,-0.548936 0.01517,-0.0081 0.036485,-9.58e-4 0.050956,0.0084 0.05994,0.03861 0.075593,0.116305 0.089558,0.179323 0.012502,0.141277 0.012139,0.281586 0.041285,0.420986 0.015253,0.06081 0.054493,0.105854 0.090917,0.154721 0,0 -0.8091194,0.47862 -0.8091194,0.47862 l 0,0 c -0.042452,-0.0596 -0.086919,-0.117559 -0.1065444,-0.189647 -0.033824,-0.139045 -0.044287,-0.278888 -0.047127,-0.421593 -0.00338,-0.02291 5.471e-4,-0.04973 -0.013503,-0.06814 -0.00196,-0.0026 -0.00133,0.0068 -0.0038,0.0089 -0.00788,0.0067 -0.035129,0.0217 -0.026221,0.01648 0.7610678,-0.445747 0.9870349,-0.601986 0.6711934,-0.387045 -0.067124,0.05596 -0.1314604,0.115271 -0.1997832,0.169758 -0.4082651,0.325587 -0.8808917,0.563325 -1.3400297,0.807469 -0.1666234,0.06963 -0.320084,0.115714 -0.4944384,0.04424 -0.1328173,-0.04478 -0.2654216,-0.07194 -0.4070102,-0.0553 -0.1920155,0.0092 -0.384602,0.02099 -0.573933,0.05607 0,0 0.7537339,-0.566871 0.7537339,-0.566871 z"
           inkscape:connector-curvature="0" />
      </g>
      <g
         transform="matrix(0.98607158,0.16632147,-0.16632147,0.98607158,28.614307,3.5851878)"
         id="g3856">
        <path
           style="fill:#2e3436;fill-opacity:1;stroke:none"
           id="path3823"
           d="m -17.531171,16.741107 c 0.129626,0.09489 0.270914,0.172063 0.423599,0.222117 0.129275,0.03661 0.263937,0.03965 0.397276,0.04152 0.115319,0.0086 0.211387,0.08463 0.326518,0.08652 0.280405,-0.144469 0.653098,-0.359002 -0.673454,0.382698 -0.01985,0.0111 0.03856,-0.02417 0.0569,-0.03762 0.02732,-0.02004 0.09075,-0.07416 0.11648,-0.09581 0.365732,-0.271091 0.740958,-0.574748 1.184777,-0.695231 0.0216,-0.0038 0.04321,-0.0077 0.06481,-0.01152 0.02028,0.0014 0.04072,0.0073 0.06084,0.0043 0.01449,-0.0021 0.02501,-0.01777 0.0396,-0.01905 0.04006,-0.0035 0.103274,0.02537 0.14272,0.0345 0.103123,0.03464 0.175929,0.115112 0.26729,0.168862 0.157711,0.08841 0.221079,0.253731 0.2887,0.411202 0.03083,0.05077 0.04307,0.175224 0.110345,0.203496 0.024,0.01009 0.08896,-0.05407 0.06603,-0.04173 -0.255245,0.137402 -0.506434,0.282207 -0.75965,0.42331 0.134,-0.08078 0.236643,-0.199097 0.325358,-0.325823 0,0 0.860964,-0.372417 0.860964,-0.372417 l 0,0 c -0.0962,0.126836 -0.181028,0.260846 -0.30906,0.360707 -0.07263,0.04075 -0.752124,0.663787 -0.989245,0.439773 -0.06377,-0.06024 -0.08419,-0.153562 -0.11678,-0.230822 -0.06297,-0.143921 -0.120527,-0.28379 -0.268729,-0.358354 -0.07915,-0.05414 -0.15135,-0.120797 -0.248995,-0.139241 -0.09257,-0.01586 -0.186058,3.78e-4 -0.275186,0.03001 -0.322697,0.139849 -0.05628,0.02711 0.684818,-0.407128 0.02075,-0.01216 -0.04305,0.02158 -0.06351,0.0342 -0.08498,0.05239 -0.04475,0.03561 -0.127122,0.09657 -0.02191,0.01621 -0.04547,0.03008 -0.0682,0.04511 -0.341049,0.261143 -0.689692,0.668922 -1.140269,0.642269 -0.105512,-0.02834 -0.20626,-0.07744 -0.317564,-0.07885 -0.139737,-0.0062 -0.279941,-0.01854 -0.412199,-0.06781 -0.157723,-0.06322 -0.305333,-0.148165 -0.445276,-0.244405 0,0 0.798219,-0.501382 0.798219,-0.501382 z"
           inkscape:connector-curvature="0" />
        <path
           style="fill:#2e3436;fill-opacity:1;stroke:none"
           id="path3825"
           d="m -12.391303,16.93562 c 0.187998,-0.0015 0.377516,0.01749 0.565403,0.0075 0.08895,-0.0047 0.223553,-0.02876 0.312814,-0.0432 0.182684,-0.03299 0.325675,-0.03172 0.504226,0.0052 0.109089,0.01323 0.194292,0.09047 0.265018,0.169647 0.09342,0.101641 0.227301,0.09281 0.35371,0.08646 0.04921,-0.0036 0.117056,-0.0045 0.164221,-0.02362 0.02362,-0.0096 0.08683,-0.05343 0.06451,-0.0411 -0.248699,0.137311 -0.489534,0.289352 -0.743762,0.416133 -0.02623,0.01308 0.03717,-0.04566 0.05179,-0.07106 0.01334,-0.02317 0.02104,-0.04916 0.03156,-0.07374 0,0 0.8490997,-0.392807 0.8490997,-0.392807 l 0,0 c -0.010182,0.02734 -0.02078,0.05453 -0.030545,0.08202 -0.01194,0.03362 -0.0053,0.08092 -0.03457,0.10129 -0.421534,0.293269 -0.662439,0.545109 -1.108119,0.553518 -0.151327,-0.0033 -0.297239,-0.02811 -0.402588,-0.147358 -0.06668,-0.06637 -0.136178,-0.112354 -0.23222,-0.120809 -0.156964,-0.02823 -0.313449,-0.01264 -0.470894,0.0089 -0.299705,0.03662 -0.600082,0.03036 -0.901516,0.03658 0,0 0.761861,-0.553525 0.761861,-0.553525 z"
           inkscape:connector-curvature="0" />
        <path
           style="fill:#2e3436;fill-opacity:1;stroke:none"
           id="path3827"
           d="m -7.8405321,17.045954 c 0.1680136,-0.104546 0.3462846,-0.187361 0.5384724,-0.234593 0.1645828,-0.03092 0.3340825,-0.05426 0.5009541,-0.0321 0.146276,0.06322 0.222507,0.198074 0.2980516,0.329943 0.055492,0.07601 0.1450952,0.18276 0.2487639,0.160842 0.3160212,-0.179057 -0.3568999,0.202375 -0.7172882,0.397891 -0.019314,0.01048 0.036665,-0.02442 0.053363,-0.0387 0.054182,-0.04635 0.1021231,-0.103803 0.1513741,-0.155227 0.072304,-0.07539 0.037223,-0.03761 0.105336,-0.113252 0,0 0.8624344,-0.366165 0.8624344,-0.366165 l 0,0 c -0.06449,0.08258 -0.030241,0.04302 -0.1027479,0.118683 -0.2990862,0.315274 -0.6340959,0.730614 -1.1208032,0.703013 -0.1240755,-0.03973 -0.2235606,-0.128323 -0.2926625,-0.238169 -0.06081,-0.104628 -0.1190408,-0.228362 -0.2490002,-0.253946 -0.1605617,-0.0043 -0.321671,0.01448 -0.4768602,0.05638 -0.1889741,0.06242 -0.3626934,0.155317 -0.5351225,0.253925 0,0 0.7357353,-0.588519 0.7357353,-0.588519 z"
           inkscape:connector-curvature="0" />
      </g>
      <g
         transform="matrix(0.98607158,0.16632147,-0.16632147,0.98607158,28.584574,3.9365198)"
         id="g3861">
        <path
           style="fill:#2e3436;fill-opacity:1;stroke:none"
           id="path3829"
           d="m -17.023234,19.57396 c 0.147544,0.13168 0.22918,0.304839 0.305216,0.482834 0.05814,0.121041 0.1188,0.237123 0.237648,0.30617 0.04678,-0.0023 0.07491,-0.01943 0.108144,-0.05012 -0.257912,0.146848 -0.513903,0.297124 -0.773737,0.440545 -0.0145,0.008 0.02527,-0.02153 0.03656,-0.03365 0.01368,-0.01467 0.02545,-0.031 0.03818,-0.0465 0.247347,-0.35911 0.257491,-0.286743 0.937801,-0.620921 0.0084,-0.0041 0.08435,0.08116 0.08884,0.08602 0.04562,0.03919 0.10474,0.103115 0.172152,0.09737 0.02921,-0.0025 0.05534,-0.01936 0.08318,-0.02854 0.114623,-0.09778 0.267844,-0.0899 0.410298,-0.09898 0.280092,-0.01094 0.560471,-0.01327 0.840743,-0.01634 0.177703,-0.002 0.355418,-0.0015 0.53313,-0.0018 0.06991,0.0052 0.141383,-0.0067 0.211181,-3.22e-4 0.05449,0.005 0.100538,0.02578 0.1556,0.02258 0.174993,-0.28349 -0.009,0.0233 -0.771874,0.426209 -0.01364,0.0072 0.01236,-0.02845 0.01584,-0.04347 0.01641,-0.07074 0.01289,-0.14889 0.0147,-0.220767 -0.0031,-0.626869 0.04169,-0.389553 0.87537,-0.883302 0.121289,0.02119 0.224883,0.09423 0.312207,0.177862 0.05411,0.06819 0.11911,0.118861 0.195927,0.158047 0,0 -0.788253,0.511783 -0.788253,0.511783 l 0,0 c -0.0769,-0.0492 -0.145662,-0.106392 -0.206406,-0.17502 -0.06799,-0.05773 -0.162473,-0.133227 -0.253761,-0.08671 0.254868,-0.154834 0.509065,-0.310776 0.764603,-0.464501 0.01278,-0.0077 -0.02754,0.01415 -0.03618,0.0263 -0.0116,0.01632 -0.01741,0.03637 -0.02217,0.05582 -0.02054,0.08397 -0.0042,0.17093 -0.0082,0.255933 0.0048,0.420208 0.01745,0.988987 -0.860528,0.810893 -0.117704,-0.02457 -0.236336,-0.02189 -0.356189,-0.02073 -0.175365,-9.25e-4 -0.35073,-0.0014 -0.526093,-0.0026 -0.278916,-5.43e-4 -0.558383,-8.72e-4 -0.836463,0.02353 -0.06811,0.0085 -0.13782,0.01426 -0.204321,0.03298 -0.05743,0.01617 -0.104425,0.05147 -0.160485,0.06933 -0.01657,0.0053 -0.03405,0.0071 -0.05108,0.01058 -0.12311,0.0068 -0.218105,-0.05695 -0.305027,-0.139993 -0.0092,-0.0063 -0.01663,-0.01756 -0.02774,-0.01898 -0.0056,-7.18e-4 -0.01402,0.01708 -0.0091,0.01425 0.262176,-0.151928 0.520533,-0.310378 0.782615,-0.462468 0.0582,-0.03378 -0.1604,0.118734 -0.106388,0.134706 -0.247911,0.347001 -0.05871,0.11526 -0.905439,0.59538 -0.01906,0.01081 -0.08678,0.0031 -0.104244,-0.0022 -0.01946,-0.0058 -0.0369,-0.01696 -0.05535,-0.02544 -0.123526,-0.09221 -0.198834,-0.215779 -0.259555,-0.356386 -0.06929,-0.165404 -0.139424,-0.328337 -0.289536,-0.438061 0,0 0.798219,-0.501383 0.798219,-0.501383 z"
           inkscape:connector-curvature="0" />
        <path
           style="fill:#2e3436;fill-opacity:1;stroke:none"
           id="path3831"
           d="m -10.864504,19.784607 c 0.118107,0.117537 0.263648,0.190492 0.422572,0.234138 0.130545,0.02939 0.264848,0.02957 0.39793,0.03009 0.1427605,0.0084 0.2437865,6.58e-4 0.3685714,-0.07197 0.3495841,-0.206389 -0.3523874,0.208557 -0.6567014,0.371523 -0.02969,0.0159 0.05296,-0.04178 0.07735,-0.06501 0.05482,-0.0522 0.100939,-0.113533 0.152902,-0.168529 0.7325559,-0.421902 0.9073017,-0.734328 0.9338632,-0.11216 0.00504,0.05783 0.00467,0.112594 0.069954,0.120332 0,0 -0.7884638,0.518945 -0.7884638,0.518945 l 0,0 c -0.074654,-0.05399 -0.1114569,-0.115669 -0.1160854,-0.210289 -0.01399,-0.499036 -0.16162,-0.164404 0.7752179,-0.666993 -0.1129429,0.0652 -0.1469165,0.183432 -0.2363204,0.239785 -0.2863654,0.180501 -0.5808085,0.347874 -0.8726705,0.519345 -0.0237,0.01392 -0.04922,0.02448 -0.07382,0.03672 -0.128615,0.04516 -0.259411,0.04494 -0.394671,0.03929 -0.138687,-0.0038 -0.27836,-0.01131 -0.411544,-0.05397 -0.164656,-0.05896 -0.312287,-0.147018 -0.446303,-0.259865 0,0 0.798219,-0.501382 0.798219,-0.501382 z"
           inkscape:connector-curvature="0" />
      </g>
    </g>
  </g>
</svg>
